PathFileType	4	(X/Y/Z)	Walk1_0-155.trc
DataRate	CameraRate	NumFrames	NumMarkers	Units	OrigDataRate	OrigDataStartFrame	OrigNumFrames
30	30	6	22	m	30	96	155
Frame#	Time	Hip			RHip			RKnee			RAnkle			RBigToe			RSmallToe			RHeel			LHip			LKnee			LAnkle			LBigToe			LSmallToe			LHeel			Neck			Head			Nose			RShoulder			RElbow			RWrist			LShoulder			LElbow			LWrist		
		X1	Y1	Z1	X2	Y2	Z2	X3	Y3	Z3	X4	Y4	Z4	X5	Y5	Z5	X6	Y6	Z6	X7	Y7	Z7	X8	Y8	Z8	X9	Y9	Z9	X10	Y10	Z10	X11	Y11	Z11	X12	Y12	Z12	X13	Y13	Z13	X14	Y14	Z14	X15	Y15	Z15	X16	Y16	Z16	X17	Y17	Z17	X18	Y18	Z18	X19	Y19	Z19	X20	Y20	Z20	X21	Y21	Z21	X22	Y22	Z22
97	3.2333333333333334	0.12674537121824742	0.9048894601310604	0.34380257207763704	0.12166700465006484	0.8850524500006663	0.4617814040341916	0.2726250062523084	0.5570549972891288	0.46783606122059673	-0.03745690734083339	0.3009317404761431	0.42902330394031596	0.013878597115644705	0.08679082508882158	0.4299134461650319	-0.03050013641921512	0.11542607162293275	0.46891593016201993	-0.12768259783792577	0.2803190650713121	0.41854108980642146	0.11969175274363476	0.8843458284516456	0.23286927256690632	0.1552630086250693	0.5123062766720924	0.2556121173223529	0.12183483983450369	0.10784713769396753	0.2784115803055547	0.3308980531424096	0.038795021996442074	0.290109786065125	0.29081627977527763	0.03531982909266834	0.23317957536427397	0.07345866293875941	0.04190241360462519	0.2795821086689697	0.07162814253152101	1.582156892879613	0.3437250817746545	0.14114095921391834	1.8352960211438751	0.36470369828500276	0.22902609683786962	1.6853073662367768	0.3450868783094142	0.010515248171386425	1.466317374495184	0.5124860950040654	0.05763317121614352	1.1619169370933913	0.5659981043442958	0.11502857890921403	0.9092746040118497	0.6055839494666027	0.06771587021363872	1.4642702590996162	0.16744889436989202	0.1256738274154389	1.1605851050937344	0.09009552813970967	0.21077583757259585	0.9107299031555078	0.06698413018476561
98	3.2666666666666666	0.1621758314920698	0.9104719778126936	0.3455943894992884	0.16003229067863992	0.8892822104962783	0.4636983424604139	0.3411012556759384	0.569620020493743	0.46559892286037413	0.07071459223129845	0.28033028398355336	0.4329399531793065	0.16143192796906586	0.08976161652918507	0.4420703660803424	0.11095906786875359	0.11045907459321401	0.4776614724058022	-0.011023605486670085	0.2473623213186722	0.4255054810720629	0.15168153694966222	0.8874641285915036	0.23327384627208433	0.16268422220225107	0.5139847961388186	0.25604004603075553	0.12325612024506281	0.10790357257763822	0.27886611972649394	0.3313892372748488	0.03673293102184412	0.28981370478858265	0.2883485573962153	0.03331383473968715	0.23180240961531748	0.07409409922241599	0.04324744810301831	0.28197936544386426	0.11020275844491849	1.5889235783868059	0.34144869522371823	0.1872531148610332	1.84089302205127	0.36970570882001313	0.2739901669216354	1.6886342556452683	0.3438963754867514	0.048242255353899824	1.4716269327946712	0.5148964061522917	0.0769721752589712	1.167335416236904	0.5677294161813863	0.11923699920814612	0.9118525507821051	0.6090087268365633	0.11074660571967296	1.4690357204864182	0.1668390091722993	0.18201034554412907	1.1698617601696675	0.08817882729430203	0.28437354361526634	0.925397739258168	0.06784410032709182
99	3.3	0.19679168506253936	0.9140895265681475	0.3474120357092186	0.19807931730822928	0.8915038492864051	0.46575730214609784	0.3988519552806091	0.5762874003387183	0.46233692661210996	0.1834691592175386	0.25178717121765626	0.43740036219220857	0.3137634289339181	0.09081851134473029	0.4518084087820436	0.2606340306467032	0.10243212231535971	0.48521966256104765	0.11338440169357122	0.20619319537431274	0.4327554799627144	0.18329986048833266	0.8889040200377962	0.23409244875519944	0.17156938587562753	0.5138888523532912	0.25720090418893626	0.125479717523373	0.10810476073817399	0.27997548436253616	0.33086311273093344	0.03368627853915083	0.28960033234525584	0.28546006359428533	0.03015457323578965	0.23059122626526607	0.07437762249725029	0.04375532140811602	0.2855154248868898	0.1482176893299259	1.5935110743772682	0.33904745607746256	0.23107413225630835	1.8446401424253054	0.3729369613670769	0.31860936179439997	1.6888145234488265	0.34297510426689454	0.08636158331743474	1.4746695910504455	0.5171475989068669	0.09623728774664222	1.1709871344664824	0.5701438656446098	0.12696135410959422	0.9142618888815512	0.6132605870141554	0.15414441678376878	1.472187319421087	0.16704584989977783	0.23386941357825453	1.1777755040444948	0.0865320126354626	0.3541323758361987	0.9404525742515919	0.06954488591934425
100	3.333333333333333	0.23166121312266244	0.9154515737637576	0.3491637265600283	0.23649623884509036	0.8915717137916961	0.46765388633181304	0.44702987411581857	0.5764845465581755	0.4588671784398754	0.29832935323962606	0.2205110525068664	0.4425661340268984	0.4626651695358906	0.09265151913847161	0.4588426675424279	0.41140731618894344	0.09503691884361376	0.4917543385042865	0.24207718661254457	0.1639908095280966	0.4402017252956128	0.2155672811405807	0.8887752577779066	0.23551751299379275	0.18281867503062638	0.5117053511703356	0.2587579037509829	0.1277410519495016	0.10838662789558663	0.281376889952558	0.3284234657444738	0.03032028832363563	0.28861456187759776	0.28162796448670546	0.026248408767185965	0.2290954570135195	0.07401845719941208	0.04341053799052628	0.2895399384556642	0.1868225242827173	1.5952739747095834	0.33755926448643836	0.2717286342038399	1.846388252614796	0.37366855679543926	0.3626478935479421	1.6862657445952713	0.3431273406308534	0.1253581880536946	1.4751391009729666	0.518874227304596	0.11730041336749147	1.17269571934531	0.5727687358804499	0.1387511708538104	0.9154724022587637	0.618102978360131	0.19784469370542224	1.4735854722071027	0.16826093787709814	0.28227729199293855	1.1837276737462303	0.08534706408540048	0.4222379599522366	0.9550682551913677	0.07435837642186215
101	3.3666666666666667	0.26780764815018804	0.9144190831508018	0.3511072181803423	0.2757008664663456	0.8895974693220617	0.4693623712659863	0.4885784293043425	0.5712626345350352	0.45625467682152265	0.41112838002829294	0.19182305793409268	0.4479985628168648	0.6003481453516385	0.09701528478274028	0.463853467853155	0.555132167323248	0.09067952956469442	0.49786010079210385	0.3693666874668316	0.12716240566937564	0.44737006788315153	0.24938270925707207	0.8872738670997223	0.23771998775868372	0.19685429893019127	0.5081802721239439	0.2604686146653362	0.12925111791216057	0.10872623954271542	0.28275641240031435	0.3236584868767407	0.027123849946411604	0.2858160457880511	0.2767104931795637	0.021991839067416138	0.22680000382073834	0.0727789677309884	0.04230278434201134	0.2931913180864442	0.22665005078361802	1.5941438827520698	0.3374555744845587	0.30909314288222683	1.8459668547696861	0.37185067334677346	0.40636599433144	1.6817185616600168	0.3445407135985198	0.1655847684564308	1.4730346255803817	0.5201018321587438	0.14166101812029236	1.1723116224657573	0.5752066838918387	0.15482518732927478	0.9147080578092557	0.6231228807459283	0.24189549142870925	1.4730827555127186	0.17055735293956237	0.3285189138494159	1.1872424788724953	0.0850822446398711	0.4891116305112427	0.9682028163261432	0.08254488485358794
102	3.4	0.3061724995184233	0.9111129369383792	0.35368057143515463	0.3162976558922074	0.8859447158644329	0.4712947789202614	0.5271241332317883	0.5625095613016522	0.45536490396923474	0.5162953447513288	0.1692080696885504	0.452723111378095	0.7208003329039222	0.10368949798247802	0.46756219696748236	0.6844347116406122	0.08934004941487596	0.5037859780720835	0.48776407073694505	0.09934325930731899	0.45333899831816404	0.28551811328914695	0.8845918302518943	0.24078686462039894	0.21411019324934272	0.5045630323848384	0.2621183758801556	0.12970147036241694	0.10924206085691733	0.2840155503795208	0.3172040738356424	0.024025297537803088	0.2808747092421051	0.27119478186839263	0.017666363148021034	0.2236240239674424	0.07065052277623195	0.041159935708599694	0.2958678630322327	0.2679414791200722	1.5904418196039518	0.33885570411087884	0.34446160137867293	1.8432320252301457	0.3686699719864499	0.4503776482236534	1.676074205933625	0.34664645583657144	0.20718644915603	1.4685609997106346	0.5213449470794409	0.1701896223854416	1.1697508744430267	0.577344706634741	0.1752220661292065	0.9117155168854614	0.6279523982288822	0.2863362768117451	1.4705890573111162	0.17384716504182	0.373669843503541	1.18799857925316	0.08617052434414173	0.5528267906620287	0.9785607270346137	0.09207302531818853
